HIERARCHY
ROOT Hips
{
    OFFSET   0.000000   0.000000   0.000000
    CHANNELS 6 Xposition Yposition Zposition Zrotation Xrotation Yrotation
    JOINT Chest
    {
        OFFSET   0.000000   8.007240   0.000000
        CHANNELS 3 Zrotation Xrotation Yrotation
        JOINT Chest2
        {
            OFFSET   0.000000  22.077100   0.000000
            CHANNELS 3 Zrotation Xrotation Yrotation
            JOINT Neck
            {
                OFFSET   0.000000  23.254800   0.000000
                CHANNELS 3 Zrotation Xrotation Yrotation
                JOINT Head
                {
                    OFFSET   0.000000  14.370000   1.956600
                    CHANNELS 3 Zrotation Xrotation Yrotation
                    End Site
                    {
                        OFFSET   0.000000  19.566000   0.000000
                    }
                }
            }
            JOINT LeftCollar
            {
                OFFSET   3.911900  19.017000  -0.467064
                CHANNELS 3 Zrotation Xrotation Yrotation
                JOINT LeftShoulder
                {
                    OFFSET  10.383700   0.000000   0.000000
                    CHANNELS 3 Zrotation Xrotation Yrotation
                    JOINT LeftElbow
                    {
                        OFFSET  26.662100   0.001476   0.000517
                        CHANNELS 3 Zrotation Xrotation Yrotation
                        JOINT LeftWrist
                        {
                            OFFSET  28.869000  -0.000025  -0.000106
                            CHANNELS 3 Zrotation Xrotation Yrotation
                            JOINT LeftFinger0
                            {
                                OFFSET   2.044660  -2.323460   3.252850
                                CHANNELS 3 Zrotation Xrotation Yrotation
                                JOINT LeftFinger01
                                {
                                    OFFSET   3.088130   0.000000   0.000000
                                    CHANNELS 3 Zrotation Xrotation Yrotation
                                    JOINT LeftFinger02
                                    {
                                        OFFSET   2.639460   0.000000   0.000000
                                        CHANNELS 3 Zrotation Xrotation Yrotation
                                        End Site
                                        {
                                            OFFSET   2.582190   0.000000   0.000000
                                        }
                                    }
                                }
                            }
                            JOINT LeftFinger1
                            {
                                OFFSET   8.364480   0.000000   3.252850
                                CHANNELS 3 Zrotation Xrotation Yrotation
                                JOINT LeftFinger11
                                {
                                    OFFSET   4.646930   0.000000   0.000000
                                    CHANNELS 3 Zrotation Xrotation Yrotation
                                    JOINT LeftFinger12
                                    {
                                        OFFSET   2.323460   0.000000   0.000000
                                        CHANNELS 3 Zrotation Xrotation Yrotation
                                        End Site
                                        {
                                            OFFSET   2.273050   0.000000   0.000000
                                        }
                                    }
                                }
                            }
                            JOINT LeftFinger2
                            {
                                OFFSET   8.364490   0.000015   1.078090
                                CHANNELS 3 Zrotation Xrotation Yrotation
                                JOINT LeftFinger21
                                {
                                    OFFSET   5.111620   0.000000   0.000000
                                    CHANNELS 3 Zrotation Xrotation Yrotation
                                    JOINT LeftFinger22
                                    {
                                        OFFSET   2.788160   0.000016   0.000000
                                        CHANNELS 3 Zrotation Xrotation Yrotation
                                        End Site
                                        {
                                            OFFSET   2.727660   0.000000   0.000000
                                        }
                                    }
                                }
                            }
                            JOINT LeftFinger3
                            {
                                OFFSET   7.899780   0.000017  -1.078090
                                CHANNELS 3 Zrotation Xrotation Yrotation
                                JOINT LeftFinger31
                                {
                                    OFFSET   4.646930   0.000000   0.000000
                                    CHANNELS 3 Zrotation Xrotation Yrotation
                                    JOINT LeftFinger32
                                    {
                                        OFFSET   2.323470   0.000000   0.000000
                                        CHANNELS 3 Zrotation Xrotation Yrotation
                                        End Site
                                        {
                                            OFFSET   2.273050   0.000000   0.000000
                                        }
                                    }
                                }
                            }
                            JOINT LeftFinger4
                            {
                                OFFSET   7.435090   0.000000  -3.252850
                                CHANNELS 3 Zrotation Xrotation Yrotation
                                JOINT LeftFinger41
                                {
                                    OFFSET   3.717550   0.000000   0.000000
                                    CHANNELS 3 Zrotation Xrotation Yrotation
                                    JOINT LeftFinger42
                                    {
                                        OFFSET   1.858770   0.000000   0.000000
                                        CHANNELS 3 Zrotation Xrotation Yrotation
                                        End Site
                                        {
                                            OFFSET   1.818440   0.000000   0.000000
                                        }
                                    }
                                }
                            }
                        }
                    }
                }
            }
            JOINT RightCollar
            {
                OFFSET  -3.911900  19.017000  -0.467063
                CHANNELS 3 Zrotation Xrotation Yrotation
                JOINT RightShoulder
                {
                    OFFSET -10.383700   0.000019   0.000000
                    CHANNELS 3 Zrotation Xrotation Yrotation
                    JOINT RightElbow
                    {
                        OFFSET -26.662100   0.001175   0.000102
                        CHANNELS 3 Zrotation Xrotation Yrotation
                        JOINT RightWrist
                        {
                            OFFSET -28.869000   0.000016  -0.000079
                            CHANNELS 3 Zrotation Xrotation Yrotation
                            JOINT RightFinger0
                            {
                                OFFSET  -2.044660  -2.323490   3.252850
                                CHANNELS 3 Zrotation Xrotation Yrotation
                                JOINT RightFinger01
                                {
                                    OFFSET  -3.088140   0.000000   0.000000
                                    CHANNELS 3 Zrotation Xrotation Yrotation
                                    JOINT RightFinger02
                                    {
                                        OFFSET  -2.639460   0.000000   0.000000
                                        CHANNELS 3 Zrotation Xrotation Yrotation
                                        End Site
                                        {
                                            OFFSET  -2.582190   0.000000   0.000000
                                        }
                                    }
                                }
                            }
                            JOINT RightFinger1
                            {
                                OFFSET  -8.364480   0.000000   3.252850
                                CHANNELS 3 Zrotation Xrotation Yrotation
                                JOINT RightFinger11
                                {
                                    OFFSET  -4.646930   0.000000   0.000000
                                    CHANNELS 3 Zrotation Xrotation Yrotation
                                    JOINT RightFinger12
                                    {
                                        OFFSET  -2.323470   0.000000   0.000000
                                        CHANNELS 3 Zrotation Xrotation Yrotation
                                        End Site
                                        {
                                            OFFSET  -2.273050   0.000000   0.000000
                                        }
                                    }
                                }
                            }
                            JOINT RightFinger2
                            {
                                OFFSET  -8.364480   0.000000   1.078090
                                CHANNELS 3 Zrotation Xrotation Yrotation
                                JOINT RightFinger21
                                {
                                    OFFSET  -5.111620   0.000000   0.000000
                                    CHANNELS 3 Zrotation Xrotation Yrotation
                                    JOINT RightFinger22
                                    {
                                        OFFSET  -2.788160   0.000000   0.000000
                                        CHANNELS 3 Zrotation Xrotation Yrotation
                                        End Site
                                        {
                                            OFFSET  -2.727660   0.000000   0.000000
                                        }
                                    }
                                }
                            }
                            JOINT RightFinger3
                            {
                                OFFSET  -7.899780   0.000000  -1.078090
                                CHANNELS 3 Zrotation Xrotation Yrotation
                                JOINT RightFinger31
                                {
                                    OFFSET  -4.646930   0.000000   0.000000
                                    CHANNELS 3 Zrotation Xrotation Yrotation
                                    JOINT RightFinger32
                                    {
                                        OFFSET  -2.323470   0.000000   0.000000
                                        CHANNELS 3 Zrotation Xrotation Yrotation
                                        End Site
                                        {
                                            OFFSET  -2.273050   0.000000   0.000000
                                        }
                                    }
                                }
                            }
                            JOINT RightFinger4
                            {
                                OFFSET  -7.435090   0.000000  -3.252850
                                CHANNELS 3 Zrotation Xrotation Yrotation
                                JOINT RightFinger41
                                {
                                    OFFSET  -3.717550   0.000000   0.000000
                                    CHANNELS 3 Zrotation Xrotation Yrotation
                                    JOINT RightFinger42
                                    {
                                        OFFSET  -1.858770   0.000000   0.000000
                                        CHANNELS 3 Zrotation Xrotation Yrotation
                                        End Site
                                        {
                                            OFFSET  -1.818440   0.000000   0.000000
                                        }
                                    }
                                }
                            }
                        }
                    }
                }
            }
        }
    }
    JOINT LeftHip
    {
        OFFSET   9.783040   0.000000   0.000000
        CHANNELS 3 Zrotation Xrotation Yrotation
        JOINT LeftKnee
        {
            OFFSET   0.000032 -41.789100  -0.002222
            CHANNELS 3 Zrotation Xrotation Yrotation
            JOINT LeftAnkle
            {
                OFFSET   0.000087 -41.133200  -0.000135
                CHANNELS 3 Zrotation Xrotation Yrotation
                JOINT LeftToe
                {
                    OFFSET   0.000000  -6.358960  14.674500
                    CHANNELS 3 Zrotation Xrotation Yrotation
                    End Site
                    {
                        OFFSET   0.000000   0.000000   3.913200
                    }
                }
            }
        }
    }
    JOINT RightHip
    {
        OFFSET  -9.783040   0.000000   0.000000
        CHANNELS 3 Zrotation Xrotation Yrotation
        JOINT RightKnee
        {
            OFFSET   0.000047 -41.789100  -0.000896
            CHANNELS 3 Zrotation Xrotation Yrotation
            JOINT RightAnkle
            {
                OFFSET  -0.000117 -41.133300  -0.000248
                CHANNELS 3 Zrotation Xrotation Yrotation
                JOINT RightToe
                {
                    OFFSET   0.000000  -6.358970  14.674500
                    CHANNELS 3 Zrotation Xrotation Yrotation
                    End Site
                    {
                        OFFSET   0.000000   0.000000   3.913200
                    }
                }
            }
        }
    }
}
MOTION
Frames: 5
Frame Time:   0.016667
 -0.577650  89.513500  -1.373430  -0.794055  -2.371400   2.948830   0.702919   0.904074  -0.884394   1.419970   1.797120  -1.780130  -1.363870   0.483386   0.012519  -2.241490   0.977927   3.470780  -2.295020   4.155020   7.149050 -78.747200   6.097810   5.675410   0.686317   4.635240 -16.137300  10.195800  -8.727620  -5.252790  35.907600  27.903500 -55.385000 -34.277300   0.002986   0.002121 -12.136000  -0.001795   0.000956 -32.707100  -1.293670   2.014040 -26.778800  -0.001297   0.005667 -18.750300  -0.005079   0.003784 -32.700800  -1.294280   2.013650 -49.085100   0.001366  -0.004223 -32.690700   0.003003  -0.006272 -28.545500  -3.943470   7.206270 -41.874300  -0.000608  -0.001557 -27.879700  -0.002875   0.003911 -35.150800  -5.850740   8.246490 -53.358300  -0.001778   0.001728 -35.536600  -0.003162   0.002087   4.793780   6.013610   4.072910  73.442700  -5.293810  -3.554560   3.846640  -5.100630  11.831500 -18.851600   2.158190   3.081910 -41.125800  35.156400  77.075900  14.335600  -0.001912  -0.004773   2.167770   0.001947   0.000358  31.863700   0.256562   0.412747  26.071000  -0.001050   0.000691  18.241300  -0.000496   0.004977  28.808700  -1.699520  -3.086870  43.281700   0.004067  -0.007337  28.825700  -0.004186  -0.008091  29.987600  -2.236200  -3.868270  45.094700  -0.002096  -0.002743  30.033100  -0.003663  -0.002861  41.262200  -2.949570  -3.356560  62.023000  -0.002618  -0.003149  41.307300  -0.000993  -0.005366   3.357390   3.315810  -2.676920   0.422217   1.098610   9.439730  -3.685750  -2.411400   0.131807   0.000000   0.000000   0.000000  -1.201210   4.131170  -5.116640   0.763087   1.561600 -14.747800   0.272437  -2.347640  -0.948714   0.000000   0.000000   0.000000
 -0.571403  89.513500  -1.373440  -0.791545  -2.383150   2.952390   0.702945   0.917571  -0.884554   1.420170   1.824110  -1.780680  -1.370000   0.490318   0.012540  -2.251440   0.992161   3.472730  -2.306200   4.147060   7.159870 -78.757800   6.131260   5.659320   0.680125   4.625440 -16.154500  10.199500  -8.720800  -5.259670  35.916300  27.911100 -55.376000 -34.269100   0.002987   0.002126 -12.135900  -0.001787   0.000963 -32.703900  -1.293670   2.014040 -26.776300  -0.001298   0.005665 -18.750400  -0.005078   0.003781 -32.706400  -1.294280   2.013650 -49.093700   0.001366  -0.004209 -32.696400   0.002997  -0.006267 -28.545500  -3.943460   7.206260 -41.876400  -0.000605  -0.001567 -27.884900  -0.002872   0.003909 -35.150900  -5.850550   8.246830 -53.358600  -0.001778   0.001733 -35.536800  -0.003160   0.002080   4.787940   5.996630   4.078550  73.436000  -5.273850  -3.548610   3.859430  -5.119620  11.837700 -18.842600   2.158200   3.076930 -41.127900  35.163900  77.079100  14.360900  -0.001924  -0.004789   2.180420   0.001951   0.000355  31.858000   0.241836   0.389167  26.066200  -0.001051   0.000669  18.241300  -0.000490   0.004984  28.798900  -1.706250  -3.100620  43.267600   0.004064  -0.007312  28.816300  -0.004184  -0.008089  29.982700  -2.242750  -3.880510  45.088000  -0.002098  -0.002738  30.028600  -0.003668  -0.002866  41.250100  -2.957900  -3.367700  62.005600  -0.002603  -0.003125  41.295800  -0.000987  -0.005362   3.351180   3.329210  -2.668390   0.422555   1.100580   9.433110  -3.682160  -2.411980   0.127575   0.000000   0.000000   0.000000  -1.201970   4.146930  -5.123880   0.758691   1.558440 -14.755400   0.272509  -2.347920  -0.936423   0.000000   0.000000   0.000000
 -0.561161  89.513600  -1.373540  -0.786532  -2.403720   2.959130   0.703119   0.940617  -0.884717   1.420960   1.870190  -1.781250  -1.381090   0.506150   0.012688  -2.269490   1.024490   3.481110  -2.323760   4.137270   7.180690 -78.773900   6.195820   5.629730   0.667510   4.606140 -16.186800  10.206300  -8.713920  -5.270850  35.930200  27.926500 -55.365400 -34.260900   0.002991   0.002134 -12.135800  -0.001778   0.000973 -32.700700  -1.293670   2.014040 -26.773800  -0.001300   0.005658 -18.750400  -0.005078   0.003776 -32.717700  -1.294280   2.013650 -49.110700   0.001366  -0.004171 -32.707700   0.002982  -0.006256 -28.545300  -3.943450   7.206240 -41.882400  -0.000597  -0.001592 -27.893700  -0.002865   0.003905 -35.151200  -5.850200   8.247300 -53.361100  -0.001776   0.001744 -35.538500  -0.003156   0.002061   4.780550   5.969850   4.087760  73.424900  -5.231250  -3.537350   3.879220  -5.149670  11.847100 -18.833600   2.158230   3.067780 -41.128100  35.173800  77.086800  14.418400  -0.001950  -0.004812   2.209210   0.001963   0.000343  31.849200   0.227111   0.365587  26.059000  -0.001054   0.000611  18.241300  -0.000474   0.005000  28.784400  -1.712980  -3.114380  43.246300   0.004055  -0.007248  28.802100  -0.004178  -0.008082  29.975400  -2.249290  -3.892750  45.077700  -0.002106  -0.002725  30.021800  -0.003680  -0.002877  41.233800  -2.966240  -3.378850  61.981900  -0.002566  -0.003063  41.280000  -0.000972  -0.005351   3.341060   3.351850  -2.659900   0.422776   1.103250   9.426500  -3.676530  -2.412780   0.120915  -0.000000   0.000000  -0.000000  -1.206660   4.170070  -5.133950   0.752944   1.555250 -14.766800   0.272714  -2.349870  -0.920239   0.000000   0.000000   0.000000
 -0.553541  89.513700  -1.374560  -0.780189  -2.422090   2.966410   0.704352   0.960736  -0.884525   1.423820   1.910410  -1.781000  -1.391650   0.526284   0.012964  -2.286830   1.065350   3.497340  -2.337330   4.135050   7.204290 -78.781100   6.270930   5.600680   0.651796   4.581840 -16.222100  10.212500  -8.728030  -5.280190  35.935100  27.945400 -55.369500 -34.268700   0.003002   0.002139 -12.136000  -0.001788   0.000981 -32.706100  -1.297550   2.019650 -26.778300  -0.001300   0.005646 -18.749800  -0.005082   0.003770 -32.731100  -1.298330   2.019140 -49.130900   0.001368  -0.004111 -32.721200   0.002960  -0.006238 -28.545100  -3.943440   7.206230 -41.894500  -0.000587  -0.001632 -27.902300  -0.002852   0.003900 -35.156600  -5.849740   8.247500 -53.369200  -0.001773   0.001762 -35.543900  -0.003149   0.002032   4.779520   5.951730   4.096450  73.413400  -5.174800  -3.524240   3.893020  -5.174210  11.852400 -18.837400   2.162150   3.057870 -41.117400  35.179300  77.100100  14.491400  -0.001982  -0.004824   2.245730   0.001984   0.000316  31.843000   0.227429   0.366116  26.053900  -0.001060   0.000523  18.238600  -0.000449   0.005026  28.774500  -1.710080  -3.110110  43.231500   0.004040  -0.007150  28.792200  -0.004168  -0.008070  29.970500  -2.246400  -3.888380  45.070200  -0.002120  -0.002707  30.016800  -0.003697  -0.002893  41.228500  -2.962540  -3.375140  61.973900  -0.002512  -0.002968  41.274600  -0.000949  -0.005334   3.333420   3.370430  -2.662780   0.422506   1.104150   9.427440  -3.672730  -2.413060   0.116503   0.000000   0.000000   0.000000  -1.218120   4.178860  -5.137900   0.755127   1.570370 -14.774900   0.273108  -2.356610  -0.915700  -0.000000   0.000000  -0.000000
 -0.545681  89.513700  -1.376150  -0.774024  -2.441970   2.974230   0.706312   0.980464  -0.883313   1.427980   1.949850  -1.779030  -1.403510   0.554592   0.013647  -2.306350   1.122710   3.522150  -2.345330   4.134540   7.229000 -78.790900   6.346640   5.567400   0.634914   4.559330 -16.257100  10.219700  -8.742160  -5.287410  35.940100  27.965800 -55.372400 -34.276700   0.003015   0.002141 -12.136300  -0.001797   0.000991 -32.714300  -1.303280   2.027930 -26.785100  -0.001300   0.005630 -18.749300  -0.005088   0.003762 -32.744900  -1.304360   2.027240 -49.151900   0.001371  -0.004036 -32.735200   0.002931  -0.006215 -28.544900  -3.943430   7.206210 -41.905300  -0.000575  -0.001680 -27.908900  -0.002834   0.003893 -35.164200  -5.849450   8.247570 -53.379000  -0.001770   0.001783 -35.550400  -0.003140   0.001993   4.779090   5.935250   4.101500  73.408400  -5.112680  -3.512070   3.902590  -5.189180  11.857100 -18.844100   2.172900   3.048490 -41.108700  35.182300  77.108900  14.593800  -0.002022  -0.004837   2.296930   0.002011   0.000284  31.839800   0.229656   0.369822  26.051300  -0.001068   0.000413  18.235900  -0.000415   0.005058  28.769900  -1.702820  -3.097790  43.223900   0.004020  -0.007028  28.787100  -0.004155  -0.008056  29.968300  -2.240570  -3.878820  45.066300  -0.002138  -0.002685  30.014200  -0.003719  -0.002913  41.227900  -2.955040  -3.366830  61.972200  -0.002448  -0.002851  41.273500  -0.000924  -0.005312   3.325560   3.389700  -2.665660   0.422149   1.104340   9.428370  -3.669530  -2.413120   0.112384  -0.000000   0.000000   0.000000  -1.232620   4.190240  -5.139180   0.758661   1.585520 -14.779100   0.273364  -2.362510  -0.915054   0.000000   0.000000   0.000000
